<?xml version="1.0" encoding="UTF-8"?>
<!DOCTYPE svg PUBLIC "-//W3C//DTD SVG 1.1//EN" "http://www.w3.org/Graphics/SVG/1.1/DTD/svg11.dtd">
<svg xmlns="http://www.w3.org/2000/svg" version="1.1" width="1024px" height="1024px" style="shape-rendering:geometricPrecision; text-rendering:geometricPrecision; image-rendering:optimizeQuality; fill-rule:evenodd; clip-rule:evenodd" xmlns:xlink="http://www.w3.org/1999/xlink">
<g><path style="opacity:1" fill="#fcfefd" d="M -0.5,-0.5 C 340.833,-0.5 682.167,-0.5 1023.5,-0.5C 1023.5,340.833 1023.5,682.167 1023.5,1023.5C 682.167,1023.5 340.833,1023.5 -0.5,1023.5C -0.5,682.167 -0.5,340.833 -0.5,-0.5 Z"/></g>
<g><path style="opacity:1" fill="#151715" d="M 690.5,216.5 C 698.84,216.334 707.173,216.5 715.5,217C 726.447,219.73 730.613,226.563 728,237.5C 726.098,242.4 722.598,245.567 717.5,247C 654.941,245.123 603.607,267.956 563.5,315.5C 557.298,308.498 550.131,302.832 542,298.5C 541.333,297.833 541.333,297.167 542,296.5C 572.143,256.327 611.977,231.16 661.5,221C 671.281,219.308 680.948,217.808 690.5,216.5 Z"/></g>
<g><path style="opacity:1" fill="#151715" d="M 322.5,216.5 C 385.114,214.304 438.614,234.97 483,278.5C 488.318,284.474 493.152,290.807 497.5,297.5C 489.471,302.532 482.138,308.532 475.5,315.5C 434.586,267.055 382.253,244.221 318.5,247C 311.092,242.574 308.258,236.074 310,227.5C 312.537,221.785 316.704,218.118 322.5,216.5 Z"/></g>
<g><path style="opacity:1" fill="#151715" d="M 650.5,505.5 C 631.662,504.172 612.662,504.172 593.5,505.5C 593.624,506.107 593.957,506.44 594.5,506.5C 604.346,518.176 612.18,531.176 618,545.5C 633.453,553.477 648.953,561.31 664.5,569C 672.102,577.374 676.602,587.208 678,598.5C 678.667,628.833 678.667,659.167 678,689.5C 676.532,701.632 669.699,707.132 657.5,706C 652.853,703.894 649.686,700.394 648,695.5C 647.667,664.167 647.333,632.833 647,601.5C 646.548,598.851 645.714,596.351 644.5,594C 638.224,590.946 632.057,587.779 626,584.5C 629.105,627.857 615.939,665.357 586.5,697C 551.352,727.914 513.019,732.581 471.5,711C 442.236,691.346 423.736,664.18 416,629.5C 414.146,614.898 412.979,600.231 412.5,585.5C 407.046,587.727 401.713,590.227 396.5,593C 394.959,594.579 393.792,596.413 393,598.5C 391.703,630.794 391.036,663.127 391,695.5C 387.498,703.669 381.331,707.169 372.5,706C 366.457,703.432 362.624,698.932 361,692.5C 360.028,659.119 360.362,625.786 362,592.5C 364.577,583.507 369.077,575.673 375.5,569C 390.527,561.403 405.694,553.903 421,546.5C 426.624,531.243 434.79,517.576 445.5,505.5C 426.5,504.167 407.5,504.167 388.5,505.5C 374.34,531.824 359.673,557.824 344.5,583.5C 333.097,592.711 324.264,590.711 318,577.5C 317.333,574.167 317.333,570.833 318,567.5C 332.56,540.045 347.893,513.045 364,486.5C 369.733,479.883 376.899,475.716 385.5,474C 411.506,473.833 437.506,473.333 463.5,472.5C 455.698,463.111 450.365,452.444 447.5,440.5C 433.496,440.667 419.496,440.5 405.5,440C 400.645,438.495 396.812,435.662 394,431.5C 383.623,405.044 373.623,378.377 364,351.5C 360.771,344.125 360.771,336.792 364,329.5C 369.237,323.739 375.737,321.905 383.5,324C 388.789,327.064 392.289,331.564 394,337.5C 401.946,361.171 409.779,384.838 417.5,408.5C 427.5,408.5 437.5,408.5 447.5,408.5C 450.699,392.78 458.532,379.78 471,369.5C 469.202,343.92 480.035,326.087 503.5,316C 532.362,309.016 553.196,318.849 566,345.5C 568.493,353.066 568.993,360.732 567.5,368.5C 577.558,377.388 585.058,388.054 590,400.5C 591.079,403.063 591.579,405.729 591.5,408.5C 601.5,408.5 611.5,408.5 621.5,408.5C 629.72,381.337 639.22,354.671 650,328.5C 656.454,321.811 663.621,320.978 671.5,326C 676.918,330.662 679.084,336.495 678,343.5C 667.183,372.955 656.183,402.289 645,431.5C 641.699,436.234 637.199,439.067 631.5,440C 618.154,440.167 604.821,440.667 591.5,441.5C 588.566,453.538 582.9,464.038 574.5,473C 600.5,473.333 626.5,473.667 652.5,474C 662.128,475.559 669.962,480.059 676,487.5C 691.401,513.911 706.401,540.577 721,567.5C 722.187,582.313 715.354,589.146 700.5,588C 697.438,586.939 694.938,585.106 693,582.5C 678.571,556.923 664.405,531.257 650.5,505.5 Z"/></g>
<g><path style="opacity:1" fill="#fef5c6" d="M 486.5,529.5 C 484.83,532.002 482.664,534.002 480,535.5C 478.891,538.442 477.391,541.108 475.5,543.5C 474.194,545.473 472.527,547.139 470.5,548.5C 472.663,543.198 474.83,537.864 477,532.5C 478.25,531.427 479.584,531.427 481,532.5C 482.731,531.259 484.564,530.259 486.5,529.5 Z"/></g>
<g><path style="opacity:1" fill="#fad704" d="M 511.5,519.5 C 509.58,520.821 509.413,522.154 511,523.5C 516.407,522.527 521.907,522.193 527.5,522.5C 527.5,523.5 527.5,524.5 527.5,525.5C 530.752,524.623 534.085,523.957 537.5,523.5C 541.047,523.414 544.047,524.58 546.5,527C 544.679,529.456 544.012,532.289 544.5,535.5C 548.329,535.073 551.996,535.073 555.5,535.5C 555.5,538.167 555.5,540.833 555.5,543.5C 556.833,543.5 558.167,543.5 559.5,543.5C 559.336,546.187 559.503,548.854 560,551.5C 560.741,552.641 561.575,552.641 562.5,551.5C 563.48,554.086 563.813,556.753 563.5,559.5C 564.5,559.5 565.5,559.5 566.5,559.5C 566.167,564.833 565.833,570.167 565.5,575.5C 567.167,575.5 568.833,575.5 570.5,575.5C 570.167,580.833 569.833,586.167 569.5,591.5C 570.5,591.5 571.5,591.5 572.5,591.5C 572.5,594.167 572.5,596.833 572.5,599.5C 573.5,599.5 574.5,599.5 575.5,599.5C 575.5,602.167 575.5,604.833 575.5,607.5C 573.857,607.48 572.524,608.147 571.5,609.5C 569.455,615.719 567.789,622.052 566.5,628.5C 562.347,626.531 561.347,623.531 563.5,619.5C 562.167,619.5 560.833,619.5 559.5,619.5C 559.18,622.898 559.513,626.232 560.5,629.5C 561.795,630.098 563.128,630.598 564.5,631C 563.692,631.308 563.025,631.808 562.5,632.5C 563.374,634.747 563.708,637.08 563.5,639.5C 545.447,663.945 521.114,674.445 490.5,671C 484.449,670.22 478.783,668.386 473.5,665.5C 472.416,665.685 471.416,666.018 470.5,666.5C 468.273,665.599 467.273,663.933 467.5,661.5C 466.167,661.5 464.833,661.5 463.5,661.5C 459.981,656.463 456.981,651.13 454.5,645.5C 455.961,644.314 457.295,644.314 458.5,645.5C 467.322,648.848 470.822,645.848 469,636.5C 468.098,634.569 466.931,632.903 465.5,631.5C 465.573,629.973 464.906,628.973 463.5,628.5C 462.242,621.418 461.242,614.418 460.5,607.5C 460.84,594.113 461.84,580.78 463.5,567.5C 463.5,566.5 463.5,565.5 463.5,564.5C 464.75,564.423 465.583,563.756 466,562.5C 466.201,559.247 467.034,556.247 468.5,553.5C 469.167,551.833 469.833,550.167 470.5,548.5C 472.527,547.139 474.194,545.473 475.5,543.5C 477.37,541.438 479.703,540.105 482.5,539.5C 483.877,537.711 484.877,535.711 485.5,533.5C 487.5,532.833 489.5,532.167 491.5,531.5C 492.246,530.264 492.579,528.93 492.5,527.5C 498.161,527.04 502.827,524.707 506.5,520.5C 508.071,519.691 509.738,519.357 511.5,519.5 Z"/></g>
<g><path style="opacity:1" fill="#efd828" d="M 545.5,505.5 C 547.23,506.026 548.564,507.026 549.5,508.5C 549.986,511.755 548.986,514.422 546.5,516.5C 548.059,518.131 550.059,518.964 552.5,519C 550.919,519.707 549.419,520.54 548,521.5C 546.686,520.687 545.519,519.687 544.5,518.5C 533.373,518.855 522.373,519.188 511.5,519.5C 509.738,519.357 508.071,519.691 506.5,520.5C 502.827,524.707 498.161,527.04 492.5,527.5C 492.579,528.93 492.246,530.264 491.5,531.5C 489.5,532.167 487.5,532.833 485.5,533.5C 484.877,535.711 483.877,537.711 482.5,539.5C 479.703,540.105 477.37,541.438 475.5,543.5C 477.391,541.108 478.891,538.442 480,535.5C 482.664,534.002 484.83,532.002 486.5,529.5C 487.287,527.896 488.62,527.229 490.5,527.5C 493.469,524.519 497.136,522.852 501.5,522.5C 502.193,521.482 502.859,520.482 503.5,519.5C 503.842,518.662 504.508,518.328 505.5,518.5C 507.482,518.005 509.482,517.505 511.5,517C 520.5,516.667 529.5,516.333 538.5,516C 540.744,515.95 542.411,515.117 543.5,513.5C 544.968,511.084 545.635,508.417 545.5,505.5 Z"/></g>
<g><path style="opacity:1" fill="#f2e26b" d="M 503.5,519.5 C 502.859,520.482 502.193,521.482 501.5,522.5C 497.136,522.852 493.469,524.519 490.5,527.5C 490.561,525.408 491.561,523.908 493.5,523C 496.561,520.965 499.895,519.799 503.5,519.5 Z"/></g>
<g><path style="opacity:1" fill="#fef9c7" d="M 543.5,513.5 C 542.411,515.117 540.744,515.95 538.5,516C 529.5,516.333 520.5,516.667 511.5,517C 509.482,517.505 507.482,518.005 505.5,518.5C 506.058,517.21 507.058,516.377 508.5,516C 520.27,515.998 531.936,515.165 543.5,513.5 Z"/></g>
<g><path style="opacity:1" fill="#b0b5b4" d="M 650.5,505.5 C 631.659,505.17 612.993,505.503 594.5,506.5C 593.957,506.44 593.624,506.107 593.5,505.5C 612.662,504.172 631.662,504.172 650.5,505.5 Z"/></g>
<g><path style="opacity:1" fill="#4b3312" d="M 535.5,463.5 C 534.909,464.151 534.243,464.818 533.5,465.5C 526.678,466.818 520.011,466.818 513.5,465.5C 520.965,465.909 528.298,465.243 535.5,463.5 Z"/></g>
<g><path style="opacity:1" fill="#c6ac41" d="M 494.5,458.5 C 490.564,456.234 487.231,453.234 484.5,449.5C 485.75,449.423 486.583,448.756 487,447.5C 487.333,448.833 487.667,450.167 488,451.5C 490.372,453.703 492.539,456.037 494.5,458.5 Z"/></g>
<g><path style="opacity:1" fill="#e1b011" d="M 555.5,399.5 C 562.744,408.856 565.244,419.523 563,431.5C 559.386,446.947 550.219,457.614 535.5,463.5C 528.298,465.243 520.965,465.909 513.5,465.5C 506.329,465.135 499.995,462.802 494.5,458.5C 502.782,457.709 511.116,456.876 519.5,456C 545.439,446.197 557.439,427.364 555.5,399.5 Z"/></g>
<g><path style="opacity:1" fill="#f6f5b4" d="M 487.5,439.5 C 485.898,441.074 483.898,441.741 481.5,441.5C 481.5,442.5 481.5,443.5 481.5,444.5C 480.326,443.486 479.66,442.153 479.5,440.5C 482.096,439.735 484.763,439.401 487.5,439.5 Z"/></g>
<g><path style="opacity:1" fill="#ede156" d="M 495.5,415.5 C 495.657,416.873 495.49,418.207 495,419.5C 493.615,420.551 492.615,421.884 492,423.5C 491.841,428.916 491.174,434.25 490,439.5C 488.05,442.241 485.55,444.241 482.5,445.5C 481.833,445.5 481.5,445.167 481.5,444.5C 481.5,443.5 481.5,442.5 481.5,441.5C 483.898,441.741 485.898,441.074 487.5,439.5C 488.222,439.082 488.722,438.416 489,437.5C 489.22,430.068 490.053,422.735 491.5,415.5C 492.833,415.5 494.167,415.5 495.5,415.5 Z"/></g>
<g><path style="opacity:1" fill="#fad507" d="M 532.5,383.5 C 541.7,386.602 549.366,391.936 555.5,399.5C 557.439,427.364 545.439,446.197 519.5,456C 511.116,456.876 502.782,457.709 494.5,458.5C 492.539,456.037 490.372,453.703 488,451.5C 487.667,450.167 487.333,448.833 487,447.5C 486.583,448.756 485.75,449.423 484.5,449.5C 483.4,448.395 482.733,447.062 482.5,445.5C 485.55,444.241 488.05,442.241 490,439.5C 491.174,434.25 491.841,428.916 492,423.5C 492.615,421.884 493.615,420.551 495,419.5C 495.49,418.207 495.657,416.873 495.5,415.5C 495.34,413.801 495.506,412.134 496,410.5C 499.812,407.688 503.646,405.021 507.5,402.5C 516.943,401.332 526.277,400.332 535.5,399.5C 535.833,399.5 536.167,399.5 536.5,399.5C 541.352,397.512 542.352,394.512 539.5,390.5C 537.5,387.833 535.167,385.5 532.5,383.5 Z"/></g>
<g><path style="opacity:1" fill="#f9faf6" d="M 532.5,383.5 C 535.167,385.5 537.5,387.833 539.5,390.5C 539.662,392.527 539.495,394.527 539,396.5C 537.583,397.078 536.75,398.078 536.5,399.5C 536.167,399.5 535.833,399.5 535.5,399.5C 527.493,399.334 519.493,399.5 511.5,400C 509.68,400.2 508.347,401.034 507.5,402.5C 503.646,405.021 499.812,407.688 496,410.5C 495.506,412.134 495.34,413.801 495.5,415.5C 494.167,415.5 492.833,415.5 491.5,415.5C 490.053,422.735 489.22,430.068 489,437.5C 488.722,438.416 488.222,439.082 487.5,439.5C 484.763,439.401 482.096,439.735 479.5,440.5C 470.978,415.612 478.645,397.112 502.5,385C 512.337,381.03 522.337,380.53 532.5,383.5 Z"/></g>
<g><path style="opacity:1" fill="#fae770" d="M 535.5,399.5 C 526.277,400.332 516.943,401.332 507.5,402.5C 508.347,401.034 509.68,400.2 511.5,400C 519.493,399.5 527.493,399.334 535.5,399.5 Z"/></g>
<g><path style="opacity:1" fill="#fef5aa" d="M 539.5,390.5 C 542.352,394.512 541.352,397.512 536.5,399.5C 536.75,398.078 537.583,397.078 539,396.5C 539.495,394.527 539.662,392.527 539.5,390.5 Z"/></g>
<g><path style="opacity:1" fill="#f9faf7" d="M 545.5,505.5 C 545.635,508.417 544.968,511.084 543.5,513.5C 531.936,515.165 520.27,515.998 508.5,516C 507.058,516.377 506.058,517.21 505.5,518.5C 504.508,518.328 503.842,518.662 503.5,519.5C 499.895,519.799 496.561,520.965 493.5,523C 491.561,523.908 490.561,525.408 490.5,527.5C 488.62,527.229 487.287,527.896 486.5,529.5C 484.564,530.259 482.731,531.259 481,532.5C 479.584,531.427 478.25,531.427 477,532.5C 474.83,537.864 472.663,543.198 470.5,548.5C 469.833,550.167 469.167,551.833 468.5,553.5C 467.542,553.953 466.708,554.619 466,555.5C 465.261,558.546 464.428,561.546 463.5,564.5C 463.5,565.5 463.5,566.5 463.5,567.5C 462.082,570.02 461.082,572.687 460.5,575.5C 459.5,575.5 458.5,575.5 457.5,575.5C 457.892,572.278 457.392,569.278 456,566.5C 455.833,568.5 455.667,570.5 455.5,572.5C 457.277,582.042 458.277,591.709 458.5,601.5C 458.45,609.011 457.45,616.344 455.5,623.5C 456.5,623.5 457.5,623.5 458.5,623.5C 458.162,627.151 459.828,628.817 463.5,628.5C 464.906,628.973 465.573,629.973 465.5,631.5C 467.231,635.682 467.731,640.016 467,644.5C 464.281,645.444 461.448,645.777 458.5,645.5C 457.295,644.314 455.961,644.314 454.5,645.5C 445.512,624.419 442.345,602.419 445,579.5C 449.053,545.501 465.887,520.334 495.5,504C 512.446,497.692 529.112,498.192 545.5,505.5 Z"/></g>
<g><path style="opacity:1" fill="#28150d" d="M 573.5,527.5 C 574.756,527.904 575.923,528.571 577,529.5C 578.3,528.293 579.8,527.626 581.5,527.5C 580.188,530.024 579.688,532.691 580,535.5C 583.462,537.418 585.129,540.418 585,544.5C 589.534,550.271 591.701,556.937 591.5,564.5C 590.651,562.112 589.651,559.779 588.5,557.5C 587.774,554.821 586.941,552.154 586,549.5C 582.063,541.949 577.896,534.616 573.5,527.5 Z"/></g>
<g><path style="opacity:1" fill="#c79d2f" d="M 571.5,527.5 C 572.167,527.5 572.833,527.5 573.5,527.5C 577.896,534.616 582.063,541.949 586,549.5C 586.941,552.154 587.774,554.821 588.5,557.5C 587.603,556.402 586.77,556.402 586,557.5C 586.222,553.708 584.889,550.708 582,548.5C 581.506,546.866 581.34,545.199 581.5,543.5C 580.5,543.5 579.5,543.5 578.5,543.5C 578.433,538.453 576.1,535.12 571.5,533.5C 571.5,531.5 571.5,529.5 571.5,527.5 Z"/></g>
<g><path style="opacity:1" fill="#f1e883" d="M 468.5,553.5 C 467.034,556.247 466.201,559.247 466,562.5C 465.583,563.756 464.75,564.423 463.5,564.5C 464.428,561.546 465.261,558.546 466,555.5C 466.708,554.619 467.542,553.953 468.5,553.5 Z"/></g>
<g><path style="opacity:1" fill="#e7d54f" d="M 463.5,567.5 C 461.84,580.78 460.84,594.113 460.5,607.5C 459.376,596.992 459.376,586.326 460.5,575.5C 461.082,572.687 462.082,570.02 463.5,567.5 Z"/></g>
<g><path style="opacity:1" fill="#d39e2a" d="M 591.5,568.5 C 594.436,577.131 595.77,586.131 595.5,595.5C 595.511,603.392 594.845,611.225 593.5,619C 593.431,620.986 592.765,622.486 591.5,623.5C 591.98,605.146 591.98,586.812 591.5,568.5 Z"/></g>
<g><path style="opacity:1" fill="#fad104" d="M 549.5,508.5 C 549.833,508.5 550.167,508.5 550.5,508.5C 552.798,513.072 555.631,517.405 559,521.5C 559.495,523.473 559.662,525.473 559.5,527.5C 560.833,527.5 562.167,527.5 563.5,527.5C 567.212,535.946 570.712,544.612 574,553.5C 580.327,576.294 579.994,598.961 573,621.5C 569.911,627.65 566.744,633.65 563.5,639.5C 563.708,637.08 563.374,634.747 562.5,632.5C 563.025,631.808 563.692,631.308 564.5,631C 563.128,630.598 561.795,630.098 560.5,629.5C 559.513,626.232 559.18,622.898 559.5,619.5C 560.833,619.5 562.167,619.5 563.5,619.5C 561.347,623.531 562.347,626.531 566.5,628.5C 567.789,622.052 569.455,615.719 571.5,609.5C 572.524,608.147 573.857,607.48 575.5,607.5C 575.5,604.833 575.5,602.167 575.5,599.5C 574.5,599.5 573.5,599.5 572.5,599.5C 572.5,596.833 572.5,594.167 572.5,591.5C 571.5,591.5 570.5,591.5 569.5,591.5C 569.833,586.167 570.167,580.833 570.5,575.5C 568.833,575.5 567.167,575.5 565.5,575.5C 565.833,570.167 566.167,564.833 566.5,559.5C 565.5,559.5 564.5,559.5 563.5,559.5C 563.813,556.753 563.48,554.086 562.5,551.5C 561.575,552.641 560.741,552.641 560,551.5C 559.503,548.854 559.336,546.187 559.5,543.5C 558.167,543.5 556.833,543.5 555.5,543.5C 555.5,540.833 555.5,538.167 555.5,535.5C 551.996,535.073 548.329,535.073 544.5,535.5C 544.012,532.289 544.679,529.456 546.5,527C 544.047,524.58 541.047,523.414 537.5,523.5C 534.085,523.957 530.752,524.623 527.5,525.5C 527.5,524.5 527.5,523.5 527.5,522.5C 521.907,522.193 516.407,522.527 511,523.5C 509.413,522.154 509.58,520.821 511.5,519.5C 522.373,519.188 533.373,518.855 544.5,518.5C 545.519,519.687 546.686,520.687 548,521.5C 549.419,520.54 550.919,519.707 552.5,519C 550.059,518.964 548.059,518.131 546.5,516.5C 548.986,514.422 549.986,511.755 549.5,508.5 Z"/></g>
<g><path style="opacity:1" fill="#fafae0" d="M 460.5,575.5 C 459.376,586.326 459.376,596.992 460.5,607.5C 461.242,614.418 462.242,621.418 463.5,628.5C 459.828,628.817 458.162,627.151 458.5,623.5C 457.5,623.5 456.5,623.5 455.5,623.5C 457.45,616.344 458.45,609.011 458.5,601.5C 458.277,591.709 457.277,582.042 455.5,572.5C 455.667,570.5 455.833,568.5 456,566.5C 457.392,569.278 457.892,572.278 457.5,575.5C 458.5,575.5 459.5,575.5 460.5,575.5 Z"/></g>
<g><path style="opacity:1" fill="#e5b309" d="M 550.5,508.5 C 559.071,513.07 566.071,519.403 571.5,527.5C 571.5,529.5 571.5,531.5 571.5,533.5C 576.1,535.12 578.433,538.453 578.5,543.5C 579.5,543.5 580.5,543.5 581.5,543.5C 581.34,545.199 581.506,546.866 582,548.5C 584.889,550.708 586.222,553.708 586,557.5C 586.77,556.402 587.603,556.402 588.5,557.5C 589.651,559.779 590.651,562.112 591.5,564.5C 591.5,565.833 591.5,567.167 591.5,568.5C 591.98,586.812 591.98,605.146 591.5,623.5C 588.417,643.332 579.75,660.332 565.5,674.5C 555.151,683.674 543.151,689.674 529.5,692.5C 521.419,691.99 513.419,690.823 505.5,689C 497.013,685.078 488.346,681.245 479.5,677.5C 479.5,676.5 479.5,675.5 479.5,674.5C 478.448,674.649 477.448,674.483 476.5,674C 474.583,671.304 472.583,668.804 470.5,666.5C 471.416,666.018 472.416,665.685 473.5,665.5C 478.783,668.386 484.449,670.22 490.5,671C 521.114,674.445 545.447,663.945 563.5,639.5C 566.744,633.65 569.911,627.65 573,621.5C 579.994,598.961 580.327,576.294 574,553.5C 570.712,544.612 567.212,535.946 563.5,527.5C 562.167,527.5 560.833,527.5 559.5,527.5C 559.662,525.473 559.495,523.473 559,521.5C 555.631,517.405 552.798,513.072 550.5,508.5 Z"/></g>
<g><path style="opacity:1" fill="#f6e574" d="M 465.5,631.5 C 466.931,632.903 468.098,634.569 469,636.5C 470.822,645.848 467.322,648.848 458.5,645.5C 461.448,645.777 464.281,645.444 467,644.5C 467.731,640.016 467.231,635.682 465.5,631.5 Z"/></g>
<g><path style="opacity:1" fill="#cead21" d="M 463.5,661.5 C 464.833,661.5 466.167,661.5 467.5,661.5C 467.273,663.933 468.273,665.599 470.5,666.5C 472.583,668.804 474.583,671.304 476.5,674C 477.448,674.483 478.448,674.649 479.5,674.5C 479.5,675.5 479.5,676.5 479.5,677.5C 488.346,681.245 497.013,685.078 505.5,689C 513.419,690.823 521.419,691.99 529.5,692.5C 514.6,695.015 500.6,692.348 487.5,684.5C 478.208,678.208 470.208,670.542 463.5,661.5 Z"/></g>
<g><path style="opacity:1" fill="#1a1709" d="M 565.5,674.5 C 564.808,677.935 562.808,679.935 559.5,680.5C 559.66,682.199 559.494,683.866 559,685.5C 557.312,683.152 555.478,682.985 553.5,685C 554.624,685.249 555.624,685.749 556.5,686.5C 552.199,686.381 550.199,688.381 550.5,692.5C 547.901,692.549 545.734,693.549 544,695.5C 539.966,694.07 539.799,692.737 543.5,691.5C 543,691.167 542.5,690.833 542,690.5C 538.584,691.896 535.084,693.063 531.5,694C 504.858,694.837 504.858,696.004 531.5,697.5C 523.494,698.699 515.494,698.699 507.5,697.5C 507.719,696.325 507.386,695.325 506.5,694.5C 502.765,693.146 499.098,691.812 495.5,690.5C 495.5,691.5 495.5,692.5 495.5,693.5C 496.552,693.351 497.552,693.517 498.5,694C 495.856,695.625 493.189,695.459 490.5,693.5C 486.994,694.342 483.327,694.342 479.5,693.5C 479.201,691.396 479.534,689.396 480.5,687.5C 483.482,686.602 486.482,686.435 489.5,687C 488.244,686.583 487.577,685.75 487.5,684.5C 500.6,692.348 514.6,695.015 529.5,692.5C 543.151,689.674 555.151,683.674 565.5,674.5 Z"/></g>
<g><path style="opacity:1" fill="#171916" d="M 607.5,773.5 C 629.835,772.573 643.669,782.907 649,804.5C 649.579,824.522 640.413,837.689 621.5,844C 598.865,846.932 584.365,837.432 578,815.5C 577.2,793.831 587.033,779.831 607.5,773.5 Z"/></g>
<g><path style="opacity:1" fill="#161816" d="M 527.5,817.5 C 520.833,817.5 514.167,817.5 507.5,817.5C 507.19,820.713 507.523,823.713 508.5,826.5C 518.839,826.334 529.172,826.5 539.5,827C 548.711,832.629 548.711,838.295 539.5,844C 525.5,844.667 511.5,844.667 497.5,844C 493.942,842.108 491.442,839.275 490,835.5C 489.333,817.833 489.333,800.167 490,782.5C 491.27,778.23 494.104,775.73 498.5,775C 511.833,774.333 525.167,774.333 538.5,775C 544.404,776.646 546.904,780.48 546,786.5C 544.127,788.709 541.96,790.542 539.5,792C 528.839,792.5 518.172,792.667 507.5,792.5C 507.5,795.5 507.5,798.5 507.5,801.5C 515.943,801.062 524.277,801.562 532.5,803C 537.934,807.974 537.601,812.641 531.5,817C 530.207,817.49 528.873,817.657 527.5,817.5 Z"/></g>
<g><path style="opacity:1" fill="#161815" d="M 394.5,774.5 C 399.05,773.884 403.05,775.051 406.5,778C 414.879,789.257 423.379,800.423 432,811.5C 432.044,800.403 432.711,789.403 434,778.5C 439.299,773.268 444.632,773.268 450,778.5C 451.63,798.102 451.963,817.768 451,837.5C 447.23,844.414 441.73,846.247 434.5,843C 425.787,831.742 416.954,820.576 408,809.5C 407.667,819.5 407.333,829.5 407,839.5C 402.321,845.335 396.988,846.001 391,841.5C 390.138,839.913 389.471,838.246 389,836.5C 388.333,817.833 388.333,799.167 389,780.5C 390.36,777.977 392.193,775.977 394.5,774.5 Z"/></g>
<g><path style="opacity:1" fill="#f7f9f9" d="M 608.5,792.5 C 623.333,791.172 630.5,797.838 630,812.5C 625.636,825.402 617.136,829.235 604.5,824C 595.155,815.899 594.155,806.899 601.5,797C 603.898,795.476 606.231,793.976 608.5,792.5 Z"/></g>
<g><path style="opacity:1" fill="#80827e" d="M 527.5,817.5 C 521.355,818.49 515.022,818.823 508.5,818.5C 508.5,821.167 508.5,823.833 508.5,826.5C 507.523,823.713 507.19,820.713 507.5,817.5C 514.167,817.5 520.833,817.5 527.5,817.5 Z"/></g>
<g><path style="opacity:1" fill="#434a46" d="M 514.5,869.5 C 519.64,868.512 524.974,868.179 530.5,868.5C 530.768,870.099 530.434,871.432 529.5,872.5C 529.5,871.5 529.5,870.5 529.5,869.5C 524.5,869.5 519.5,869.5 514.5,869.5 Z"/></g>
<g><path style="opacity:1" fill="#151a1a" d="M 445.5,868.5 C 458.463,868.947 461.796,874.78 455.5,886C 443.635,890.483 438.469,886.316 440,873.5C 441.73,871.598 443.563,869.931 445.5,868.5 Z"/></g>
<g><path style="opacity:1" fill="#1a1f1e" d="M 559.5,868.5 C 570.033,868.521 573.867,873.521 571,883.5C 564.549,890.31 558.549,889.977 553,882.5C 551.709,876.087 553.876,871.42 559.5,868.5 Z"/></g>
<g><path style="opacity:1" fill="#858886" d="M 472.5,868.5 C 473.487,873.305 473.821,878.305 473.5,883.5C 476.167,883.5 478.833,883.5 481.5,883.5C 481.784,885.415 481.451,887.081 480.5,888.5C 480.5,888.167 480.5,887.833 480.5,887.5C 480.5,886.5 480.5,885.5 480.5,884.5C 477.833,884.5 475.167,884.5 472.5,884.5C 472.5,879.5 472.5,874.5 472.5,869.5C 472.5,869.167 472.5,868.833 472.5,868.5 Z"/></g>
<g><path style="opacity:1" fill="#eaf1f1" d="M 446.5,872.5 C 454.963,873.271 456.629,877.104 451.5,884C 445.242,884.702 442.742,881.868 444,875.5C 445.045,874.627 445.878,873.627 446.5,872.5 Z"/></g>
<g><path style="opacity:1" fill="#eef3f4" d="M 560.5,872.5 C 566.303,872.81 568.47,875.81 567,881.5C 564.048,885.482 561.048,885.482 558,881.5C 556.93,877.858 557.764,874.858 560.5,872.5 Z"/></g>
<g><path style="opacity:1" fill="#222a27" d="M 540.5,868.5 C 541.743,871.569 542.409,874.902 542.5,878.5C 542.409,882.098 541.743,885.431 540.5,888.5C 539.18,885.572 538.514,882.239 538.5,878.5C 538.514,874.761 539.18,871.428 540.5,868.5 Z"/></g>
<g><path style="opacity:1" fill="#505c56" d="M 540.5,868.5 C 541.5,868.5 542.5,868.5 543.5,868.5C 543.5,875.167 543.5,881.833 543.5,888.5C 542.5,888.5 541.5,888.5 540.5,888.5C 541.743,885.431 542.409,882.098 542.5,878.5C 542.409,874.902 541.743,871.569 540.5,868.5 Z"/></g>
<g><path style="opacity:1" fill="#171b1c" d="M 612.5,868.5 C 615.32,868.248 617.986,868.748 620.5,870C 621.337,871.011 621.67,872.178 621.5,873.5C 619.43,873.551 617.597,872.885 616,871.5C 614.5,871.667 613.667,872.5 613.5,874C 616.281,875.828 619.114,877.662 622,879.5C 622.223,886.594 618.723,889.427 611.5,888C 609.137,887.411 608.137,885.911 608.5,883.5C 610.884,883.443 613.218,883.777 615.5,884.5C 617,884.547 618,883.881 618.5,882.5C 615.212,880.781 612.045,878.781 609,876.5C 608.279,872.946 609.446,870.28 612.5,868.5 Z"/></g>
<g><path style="opacity:1" fill="#101412" d="M 514.5,869.5 C 519.5,869.5 524.5,869.5 529.5,869.5C 529.5,870.5 529.5,871.5 529.5,872.5C 527.833,872.5 526.167,872.5 524.5,872.5C 524.5,877.833 524.5,883.167 524.5,888.5C 523.167,888.5 521.833,888.5 520.5,888.5C 520.5,883.167 520.5,877.833 520.5,872.5C 518.5,872.5 516.5,872.5 514.5,872.5C 514.5,871.5 514.5,870.5 514.5,869.5 Z"/></g>
<g><path style="opacity:1" fill="#474948" d="M 472.5,868.5 C 472.5,868.833 472.5,869.167 472.5,869.5C 471.5,869.5 470.5,869.5 469.5,869.5C 469.5,875.5 469.5,881.5 469.5,887.5C 473.167,887.5 476.833,887.5 480.5,887.5C 480.5,887.833 480.5,888.167 480.5,888.5C 476.5,888.5 472.5,888.5 468.5,888.5C 468.5,881.833 468.5,875.167 468.5,868.5C 469.833,868.5 471.167,868.5 472.5,868.5 Z"/></g>
<g><path style="opacity:1" fill="#121413" d="M 587.5,879.5 C 587.44,878.957 587.107,878.624 586.5,878.5C 585.516,881.428 585.183,884.428 585.5,887.5C 584.5,887.5 583.5,887.5 582.5,887.5C 581.88,881.074 582.547,875.074 584.5,869.5C 587.882,872.567 591.048,875.901 594,879.5C 594.499,875.848 594.665,872.182 594.5,868.5C 595.833,868.5 597.167,868.5 598.5,868.5C 598.83,875.2 598.497,881.866 597.5,888.5C 593.955,885.753 590.622,882.753 587.5,879.5 Z"/></g>
<g><path style="opacity:1" fill="#191c1c" d="M 420.5,868.5 C 423.724,868.203 426.724,868.87 429.5,870.5C 430.386,871.325 430.719,872.325 430.5,873.5C 428.4,873.523 426.567,872.856 425,871.5C 423.5,871.667 422.667,872.5 422.5,874C 424.348,876.093 426.681,877.426 429.5,878C 432.611,884.108 430.611,887.608 423.5,888.5C 420.809,888.321 418.475,887.321 416.5,885.5C 417,884.119 418,883.453 419.5,883.5C 421.782,884.223 424.116,884.557 426.5,884.5C 426.67,883.178 426.337,882.011 425.5,881C 417.196,879.216 415.53,875.049 420.5,868.5 Z"/></g>
<g><path style="opacity:1" fill="#434443" d="M 584.5,869.5 C 582.547,875.074 581.88,881.074 582.5,887.5C 583.5,887.5 584.5,887.5 585.5,887.5C 584.432,888.434 583.099,888.768 581.5,888.5C 581.5,881.833 581.5,875.167 581.5,868.5C 582.791,868.263 583.791,868.596 584.5,869.5 Z"/></g>
<g><path style="opacity:1" fill="#111311" d="M 472.5,869.5 C 472.5,874.5 472.5,879.5 472.5,884.5C 475.167,884.5 477.833,884.5 480.5,884.5C 480.5,885.5 480.5,886.5 480.5,887.5C 476.833,887.5 473.167,887.5 469.5,887.5C 469.5,881.5 469.5,875.5 469.5,869.5C 470.5,869.5 471.5,869.5 472.5,869.5 Z"/></g>
<g><path style="opacity:1" fill="#b0b3b2" d="M 514.5,872.5 C 516.5,872.5 518.5,872.5 520.5,872.5C 520.5,877.833 520.5,883.167 520.5,888.5C 519.513,883.695 519.179,878.695 519.5,873.5C 517.585,873.784 515.919,873.451 514.5,872.5 Z"/></g>
<g><path style="opacity:1" fill="#8f9190" d="M 587.5,879.5 C 586.833,882.167 586.167,884.833 585.5,887.5C 585.183,884.428 585.516,881.428 586.5,878.5C 587.107,878.624 587.44,878.957 587.5,879.5 Z"/></g>
<g><path style="opacity:1" fill="#1c1f1a" d="M 489.5,868.5 C 490.833,868.5 492.167,868.5 493.5,868.5C 493.334,872.846 493.501,877.179 494,881.5C 495.581,884.553 497.914,885.22 501,883.5C 501.499,878.511 501.666,873.511 501.5,868.5C 503.167,868.5 504.833,868.5 506.5,868.5C 506.839,873.93 506.339,879.264 505,884.5C 499.514,890.08 494.514,889.747 490,883.5C 489.501,878.511 489.334,873.511 489.5,868.5 Z"/></g>
</svg>
